{"title":"The Fugitive-720p MP4 AAC x264 BRRip 1993-CC","uid":7405775,"size":2513483726,"categoryP":"video","categoryS":"hd___movies","magnet":"?xt=urn:btih:eed0816ef60928264ec99764e05c903770647e1f&amp;dn=The+Fugitive-720p+MP4+AAC+x264+BRRip+1993-CC&amp;tr=udp%3A%2F%2Ftracker.openbittorrent.com%3A80&amp;tr=udp%3A%2F%2Fopen.demonii.com%3A1337&amp;tr=udp%3A%2F%2Ftracker.coppersurfer.tk%3A6969&amp;tr=udp%3A%2F%2Fexodus.desync.com%3A6969","seeders":1,"leechers":1,"uploader":"Caveman44","files":-1,"time":1341240228,"description":" &lt;a href=&quot;http://www.imdb.com/title/tt0106977/&quot; rel=&quot;nofollow&quot; target=&quot;_NEW&quot;&gt;http://www.imdb.com/title/tt0106977/&lt;/a&gt;\n\nSource: The.Fugitive.1993.1080p.BluRay.x264-CULTHD\n\nSubs: Arabic, Bulgarian, Czech, Danish, Dutch, English, Finnish, Greek, Hebrew, Hungarian, Indonesian, Italian, Norwegian, Romanian, Slovenian, Spanish, Swedish, Thai and Vietnamese.\n\nSample and Screens included.\n\nGeneral\nComplete name                    : The Fugitive-720p MP4 AAC x264 BRRip 1993-CC.mp4\nFormat                           : MPEG-4\nFormat profile                   : Base Media\nCodec ID                         : isom\nFile size                        : 2.31 GiB\nDuration                         : 2h 10mn\nOverall bit rate                 : 2 539 Kbps\nEncoded date                     : UTC 2012-06-24 17:07:27\n\nVideo\nID                               : 1\nFormat                           : AVC\nFormat/Info                      : Advanced Video Codec\nFormat profile                   : &lt;a class=&quot;__cf_email__&quot; href=&quot;/cdn-cgi/l/email-protection&quot; data-cfemail=&quot;7931101e1139354a5748&quot;&gt;[email&amp;#160;protected]&lt;/a&gt;&lt;script cf-hash='f9e31' type=&quot;text/javascript&quot;&gt;\n/* &lt;![CDATA[ */!function(){try{var t=&quot;currentScript&quot;in document?document.currentScript:function(){for(var t=document.getElementsByTagName(&quot;script&quot;),e=t.length;e--;)if(t[e].getAttribute(&quot;cf-hash&quot;))return t[e]}();if(t&amp;&amp;t.previousSibling){var e,r,n,i,c=t.previousSibling,a=c.getAttribute(&quot;data-cfemail&quot;);if(a){for(e=&quot;&quot;,r=parseInt(a.substr(0,2),16),n=2;a.length-n;n+=2)i=parseInt(a.substr(n,2),16)^r,e+=String.fromCharCode(i);e=document.createTextNode(e),c.parentNode.replaceChild(e,c)}}}catch(u){}}();/* ]]&gt; */&lt;/script&gt;\nFormat settings, CABAC           : Yes\nFormat settings, ReFrames        : 5 frames\nCodec ID                         : avc1\nCodec ID/Info                    : Advanced Video Coding\nDuration                         : 2h 10mn\nBit rate mode                    : Variable\nBit rate                         : 2 156 Kbps\nMaximum bit rate                 : 20.7 Mbps\nWidth                            : 1 280 pixels\nHeight                           : 720 pixels\nDisplay aspect ratio             : 16:9\nFrame rate mode                  : Variable\nFrame rate                       : 23.976 fps\nMinimum frame rate               : 23.810 fps\nMaximum frame rate               : 24.390 fps\nResolution                       : 24 bits\nColorimetry                      : 4:2:0\nScan type                        : Progressive\nBits/(Pixel*Frame)               : 0.098\nStream size                      : 1.96 GiB (85%)\nWriting library                  : x264 core 112\n\n\nAudio\nID                               : 2\nFormat                           : AAC\nFormat/Info                      : Advanced Audio Codec\nFormat version                   : Version 4\nFormat profile                   : LC\nFormat settings, SBR             : No\nCodec ID                         : 40\nDuration                         : 2h 10mn\nBit rate mode                    : Variable\nBit rate                         : 384 Kbps\nMaximum bit rate                 : 469 Kbps\nChannel(s)                       : 6 channels\nChannel positions                : Front: L C R, Rear: L R, LFE\nSampling rate                    : 48.0 KHz\nResolution                       : 16 bits\nStream size                      : 358 MiB (15%)\nLanguage                         : English\n\nEnjoy..\n\nRequested by sv8pro.\n\nMore coming up.","torrent":{"xt":"urn:btih:eed0816ef60928264ec99764e05c903770647e1f","amp;dn":"The+Fugitive-720p+MP4+AAC+x264+BRRip+1993-CC","amp;tr":["udp%3A%2F%2Ftracker.openbittorrent.com%3A80","udp%3A%2F%2Fopen.demonii.com%3A1337","udp%3A%2F%2Ftracker.coppersurfer.tk%3A6969","udp%3A%2F%2Fexodus.desync.com%3A6969"],"infoHash":"eed0816ef60928264ec99764e05c903770647e1f","infoHashBuffer":{"type":"Buffer","data":[238,208,129,110,246,9,40,38,78,201,151,100,224,92,144,55,112,100,126,31]},"announce":[],"urlList":[]}}